<svg width="44" height="44" viewBox="0 0 44 44" fill="none" xmlns="http://www.w3.org/2000/svg">
<path d="M20.2812 42.2812C18.5752 42.2812 17.1874 40.8934 17.1874 39.1875V36.2762L16.9592 36.1948C15.2385 35.5812 13.6508 34.6597 12.2403 33.456L12.0556 33.2984L9.52146 34.7615C9.05112 35.0331 8.51728 35.1767 7.97776 35.1767C6.87432 35.1767 5.84642 34.5837 5.29522 33.6291L3.57647 30.6522C2.72363 29.175 3.2316 27.2791 4.70896 26.426L7.19779 24.9892L7.15362 24.7503C6.9661 23.7373 6.87492 22.8378 6.87492 22C6.87492 21.1621 6.9661 20.2624 7.15353 19.2497L7.19771 19.0108L4.70887 17.5739C3.2316 16.7209 2.72354 14.8252 3.57639 13.3477L5.29514 10.3708C5.84634 9.41634 6.87432 8.82337 7.97785 8.82337C8.51728 8.82337 9.05103 8.96689 9.52137 9.23837L12.0556 10.7015L12.2403 10.5439C13.6517 9.33995 15.2393 8.41852 16.9591 7.80527L17.1874 7.7238V4.8125C17.1874 3.10664 18.5752 1.71875 20.2812 1.71875H23.7187C25.4246 1.71875 26.8124 3.10664 26.8124 4.8125V7.7238L27.0407 7.80519C28.7605 8.41844 30.3481 9.33986 31.7595 10.5438L31.9442 10.7014L34.4784 9.23828C34.9487 8.9668 35.4825 8.82329 36.0219 8.82329C37.1254 8.82329 38.1534 9.41626 38.7046 10.3708L40.4234 13.3477C41.2762 14.8252 40.7682 16.7209 39.2909 17.5739L36.8021 19.0108L36.8462 19.2497C37.0337 20.2624 37.1249 21.1621 37.1249 22C37.1249 22.8378 37.0337 23.7373 36.8463 24.7501L36.8021 24.9889L39.291 26.4259C40.7682 27.279 41.2763 29.1748 40.4235 30.652L38.7047 33.629C38.1535 34.5835 37.1257 35.1765 36.0224 35.1765C36.0224 35.1765 36.0223 35.1765 36.0222 35.1765C35.4826 35.1765 34.9487 35.0329 34.4785 34.7614L31.9444 33.2982L31.7597 33.4558C30.3491 34.6596 28.7614 35.581 27.0408 36.1946L26.8124 36.2762V39.1875C26.8124 40.8934 25.4246 42.2812 23.7187 42.2812H20.2812Z" stroke="#0018A6" stroke-width="2" stroke-miterlimit="10" stroke-linecap="round" stroke-linejoin="round"/>
<path d="M22 28.875C25.797 28.875 28.875 25.797 28.875 22C28.875 18.203 25.797 15.125 22 15.125C18.203 15.125 15.125 18.203 15.125 22C15.125 25.797 18.203 28.875 22 28.875Z" stroke="#FE7F10" stroke-width="2" stroke-miterlimit="10" stroke-linecap="round" stroke-linejoin="round"/>
</svg>
